Coordinates
version=1
nRows=17
nColumns=24
inDegrees=yes

Units are S.I. units (second, meters, Newtons, ...)
Angles are in degrees.

endheader
time	pelvis_tilt	pelvis_list	pelvis_rotation	pelvis_tx	pelvis_ty	pelvis_tz	hip_flexion_r	hip_adduction_r	hip_rotation_r	knee_angle_r	ankle_angle_r	subtalar_angle_r	mtp_angle_r	hip_flexion_l	hip_adduction_l	hip_rotation_l	knee_angle_l	ankle_angle_l	subtalar_angle_l	mtp_angle_l	lumbar_extension	lumbar_bending	lumbar_rotation
      1.36300000	      3.43227508	      6.28951592	     -5.11345903	      0.16605349	      1.06385141	      0.34306044	     14.71678200	     -7.88518376	     -0.22350354	    -70.79658343	     -5.86145060	    -12.83079151	      9.79751162	      6.42422110	     10.85198298	     -3.84082070	     -9.14321301	     -2.13396121	     -8.93984623	      6.48486427	     -0.51861091	     -3.84938872	      1.58239756
      1.36716667	      3.43608707	      6.27179572	     -5.06620963	      0.17082904	      1.06441770	      0.34306322	     15.35783556	     -7.78131155	     -0.01898719	    -70.80509057	     -5.31670749	    -13.09990021	      9.72126698	      6.08724174	     10.86421507	     -3.76097158	     -9.07527356	     -1.90927661	     -8.91791412	      6.46083495	     -0.56957290	     -3.87824819	      1.48661101
      1.37133333	      3.43440284	      6.26035979	     -5.00989189	      0.17562638	      1.06497521	      0.34298986	     15.98254305	     -7.69279472	      0.18547943	    -70.72853878	     -4.84119105	    -13.30477660	      9.63679033	      5.74987642	     10.89127567	     -3.64639504	     -9.00557381	     -1.71090654	     -8.87900455	      6.43256492	     -0.61667493	     -3.87669979	      1.37785220
      1.37550000	      3.44764590	      6.26395361	     -4.97010303	      0.18043704	      1.06554262	      0.34285229	     16.58195033	     -7.62640253	      0.39855484	    -70.58142409	     -4.52040537	    -13.43914868	      9.58964351	      5.38322725	     10.94627538	     -3.48563332	     -8.88733018	     -1.58327215	     -8.83765469	      6.41712959	     -0.69296065	     -3.82561225	      1.29779515
      1.37966667	      3.44746801	      6.22634489	     -4.88357631	      0.18525501	      1.06612000	      0.34283479	     17.14914803	     -7.50134831	      0.55919052	    -70.36013433	     -3.99327444	    -13.60280589	      9.50650670	      5.03568070	     10.93945288	     -3.36518135	     -8.81497082	     -1.35594008	     -8.84938738	      6.38619384	     -0.74700545	     -3.84232155	      1.18259695
      1.38383333	      3.45382886	      6.19157061	     -4.82595328	      0.19004886	      1.06668905	      0.34283021	     17.70045278	     -7.37213569	      0.76105400	    -70.05027042	     -3.78911417	    -13.66576392	      9.48009271	      4.67070617	     10.93725897	     -3.20554038	     -8.70287357	     -1.27954391	     -8.82246730	      6.37688386	     -0.82999875	     -3.80357277	      1.12673404
      1.38800000	      3.46258799	      6.17517482	     -4.72809176	      0.19488324	      1.06725244	      0.34268097	     18.22160451	     -7.28705863	      0.89440821	    -69.70811726	     -3.18429933	    -13.78920331	      9.39348471	      4.30127951	     10.97057367	     -3.03226248	     -8.59239192	     -1.01608491	     -8.85579464	      6.34145575	     -0.88286324	     -3.78653157	      0.98302709
      1.39216667	      3.48969456	      6.15705132	     -4.67271257	      0.19968997	      1.06781725	      0.34259395	     18.71720313	     -7.18743024	      1.08129631	    -69.28386264	     -2.89341740	    -13.82834104	      9.34381687	      3.90051253	     11.00079911	     -2.83269546	     -8.44306712	     -0.89992518	     -8.83993599	      6.32053009	     -0.95094016	     -3.72939713	      0.88723690
      1.39633333	      3.50487715	      6.12095378	     -4.57973019	      0.20452862	      1.06839046	      0.34253893	     19.18358894	     -7.06786223	      1.22452518	    -68.78677323	     -2.48656282	    -13.87005220	      9.28377800	      3.50761678	     11.00419358	     -2.63013520	     -8.30755397	     -0.72712394	     -8.86999486	      6.29315754	     -1.01814657	     -3.69409600	      0.77449666
      1.40050000	      3.48602973	      6.07789905	     -4.48496907	      0.20931225	      1.06888789	      0.34260978	     19.67197080	     -6.91885184	      1.38188861	    -68.21480340	     -2.31656479	    -13.88316250	      9.26316030	      3.16629187	     10.98171518	     -2.50974400	     -8.19549216	     -0.66365504	     -8.87617029	      6.28360810	     -1.11853955	     -3.70430722	      0.72981295
      1.40466667	      3.52059007	      6.05745565	     -4.39821565	      0.21419326	      1.06944653	      0.34246190	     20.07833032	     -6.83033842	      1.51382998	    -67.60300021	     -1.84216695	    -13.91418224	      9.20786457	      2.73061254	     11.01614644	     -2.24183005	     -8.01281566	     -0.45334701	     -8.92615200	      6.25629368	     -1.12730872	     -3.62367278	      0.60247271
      1.40883333	      3.54400030	      6.01539091	     -4.26792450	      0.21900326	      1.06998741	      0.34238541	     20.46487522	     -6.71334593	      1.61420484	    -66.91596941	     -1.43868261	    -13.86275346	      9.13659634	      2.32015575	     11.01070136	     -1.99830243	     -7.86550676	     -0.28686824	     -8.99649005	      6.21699909	     -1.22307443	     -3.59163569	      0.44786381
      1.41300000	      3.50288148	      5.99358333	     -4.17246280	      0.22378404	      1.07038398	      0.34249299	     20.92176624	     -6.58336521	      1.76527005	    -66.16959816	     -1.30519252	    -13.86099674	      9.11895202	      1.99461393	     11.00680550	     -1.89488681	     -7.72775641	     -0.24364146	     -9.00538432	      6.20742695	     -1.33187781	     -3.62203032	      0.40823617
      1.41716667	      3.53839540	      5.96492303	     -4.07593382	      0.22867932	      1.07089889	      0.34239657	     21.25578900	     -6.48223919	      1.88221814	    -65.36179704	     -0.92441428	    -13.85174072	      9.06393186	      1.54130457	     11.02391152	     -1.60973789	     -7.51670875	     -0.07207033	     -9.07721014	      6.17523229	     -1.30447785	     -3.55727798	      0.27731820
      1.42133333	      3.54566150	      5.92802363	     -3.92904984	      0.23352176	      1.07136067	      0.34232258	     21.58853319	     -6.37663160	      1.95499782	    -64.48819220	     -0.58316170	    -13.79403885	      8.98980635	      1.12900436	     11.01865424	     -1.33642880	     -7.33370035	      0.06850426	     -9.18313045	      6.12801814	     -1.38191401	     -3.52400503	      0.10755761
      1.42550000	      3.54363879	      5.90882563	     -3.81932775	      0.23835561	      1.07176226	      0.34233085	     21.92658795	     -6.27240319	      2.06669202	    -63.56272665	     -0.36061923	    -13.76548444	      8.92708553	      0.72968925	     11.02802201	     -1.12516552	     -7.14091275	      0.15339813	     -9.25601213	      6.08704165	     -1.43988216	     -3.52686828	     -0.02360983
      1.42966667	      3.55583122	      5.87438912	     -3.63169515	      0.24313000	      1.07218380	      0.34221228	     22.20773091	     -6.18697367	      2.08855534	    -62.57412035	     -0.06593658	    -13.71729944	      8.78740746	      0.31613149	     11.02321999	     -0.82169281	     -6.96573057	      0.27330915	     -9.44117714	      5.99068368	     -1.60701897	     -3.47637692	     -0.29637748
